<?xml version="1.0" encoding="UTF-8"?>
<svg id="Capa_2" data-name="Capa 2" xmlns="http://www.w3.org/2000/svg" viewBox="0 0 121.07 92.66">
  <defs>
    <style>
      .cls-1 {
        fill: #1d1d1b;
        stroke-width: 0px;
      }
    </style>
  </defs>
  <g id="Capa_1-2" data-name="Capa 1">
    <g>
      <g>
        <path class="cls-1" d="m20.33,25.39h-3v-13.84h21.21c0-2.33-.07-4.21-.18-5.67-.13-1.64-.44-2.87-.93-3.7-.5-.83-1.3-1.4-2.4-1.71-1.1-.31-2.59-.47-4.47-.47h-15.33c-3.02,0-5.5.06-7.43.16-1.92.1-3.43.38-4.5.84-1.08.46-1.85,1.22-2.3,2.3-.46,1.08-.74,2.57-.84,4.48-.11,1.9-.16,4.39-.16,7.46v13.05c0,3.03.05,5.5.16,7.43.1,1.93.38,3.43.84,4.51.45,1.08,1.22,1.84,2.3,2.3,1.07.45,2.58.73,4.5.84,1.93.1,4.41.15,7.43.15h23.31V14.55h-18.21v10.84Z"/>
        <path class="cls-1" d="m79.52,7.78c-.11-1.91-.39-3.4-.84-4.48-.46-1.08-1.23-1.84-2.3-2.3-1.08-.46-2.58-.74-4.51-.84-1.93-.1-4.4-.16-7.43-.16h-8.08c-3.03,0-5.5.06-7.43.16-1.93.1-3.43.38-4.51.84-1.08.46-1.84,1.22-2.3,2.3-.45,1.08-.73,2.57-.84,4.48-.1,1.9-.15,4.39-.15,7.46v13.05c0,3.03.05,5.5.15,7.43.11,1.93.39,3.43.84,4.51.46,1.08,1.22,1.84,2.3,2.3,1.08.45,2.58.73,4.51.84,1.93.1,4.4.15,7.43.15h8.08c3.07,0,5.55-.05,7.46-.15,1.91-.11,3.4-.39,4.48-.84,1.07-.46,1.84-1.22,2.3-2.3.45-1.08.73-2.58.84-4.51.1-1.93.15-4.4.15-7.43v-13.05c0-3.07-.05-5.56-.15-7.46Zm-17.78,17.61h-3v-13.24h3v13.24Z"/>
        <path class="cls-1" d="m120.91,7.78c-.1-1.91-.38-3.4-.84-4.48-.45-1.08-1.22-1.84-2.3-2.3-1.07-.46-2.58-.74-4.5-.84-1.93-.1-4.41-.16-7.43-.16h-23.31v43.52h17.63V12.15h3v31.37h17.91V15.24c0-3.07-.05-5.56-.16-7.46Z"/>
      </g>
      <g>
        <path class="cls-1" d="m33.02,67.33v-20.84h-16.82c-3.21,0-5.84.05-7.88.16-2.05.11-3.64.41-4.78.89-1.15.49-1.96,1.3-2.45,2.44-.48,1.15-.78,2.73-.89,4.75-.11,2.03-.16,4.66-.16,7.92v30.01h19.79v-6.59h13.19v-15.74h-14.19v-3h14.19Z"/>
        <path class="cls-1" d="m77.08,57.36v-10.87h-24.74c-3.21,0-5.84.05-7.88.16-2.05.11-3.64.41-4.78.89-1.15.49-1.96,1.3-2.44,2.44-.49,1.15-.79,2.73-.89,4.75-.11,2.03-.17,4.66-.17,7.92v30.01h40.9v-19.03h-19.26v-3h19.26v-10.27h-19.26v-3h19.26Z"/>
        <path class="cls-1" d="m121.07,70.63v-7.98c0-3.26-.06-5.89-.17-7.92-.11-2.02-.4-3.6-.89-4.75-.48-1.14-1.3-1.95-2.44-2.44-1.14-.48-2.74-.78-4.78-.89-2.05-.11-4.67-.16-7.88-.16h-24.74v46.17h18.55v-19.83h3v19.83h19.35v-19.03h-10.25v-3h10.25Zm-19.35-7.32h-3v-7.88h3v7.88Z"/>
      </g>
    </g>
  </g>
</svg>