<svg width="72" height="56" viewBox="0 0 72 56" fill="none" xmlns="http://www.w3.org/2000/svg">
<g clip-path="url(#clip0_47_392)">
<path d="M12.3921 15.5121H10.5635V7.05651H23.492C23.492 5.63299 23.4494 4.4844 23.3823 3.59241C23.3031 2.59044 23.1141 1.83897 22.8154 1.33188C22.5107 0.824787 22.023 0.476544 21.3525 0.287148C20.682 0.0977526 19.7738 0 18.6278 0H9.28344C7.4426 0 5.93092 0.0366572 4.75449 0.0977526C3.58415 0.158848 2.66373 0.329915 2.01151 0.610954C1.3532 0.891992 0.883847 1.35632 0.60955 2.01615C0.329157 2.67598 0.158483 3.5863 0.0975279 4.75322C0.0304775 5.91403 0 7.4353 0 9.31093V17.2839C0 19.1351 0.0304775 20.6441 0.0975279 21.8233C0.158483 23.0024 0.329157 23.9188 0.60955 24.5787C0.883847 25.2385 1.3532 25.7028 2.01151 25.9839C2.66373 26.2588 3.58415 26.4298 4.75449 26.4971C5.93092 26.5581 7.4426 26.5887 9.28344 26.5887H23.492V8.88937H12.3921V15.5121Z" fill="#0A4BC3"/>
<path d="M47.6545 4.75322C47.5875 3.5863 47.4168 2.67598 47.1425 2.01615C46.8621 1.35632 46.3927 0.891992 45.7405 0.610954C45.0822 0.329915 44.1679 0.158848 42.9915 0.0977526C41.815 0.0366572 40.3094 0 38.4625 0H33.5373C31.6904 0 30.1848 0.0366572 29.0084 0.0977526C27.832 0.158848 26.9176 0.329915 26.2593 0.610954C25.601 0.891992 25.1378 1.35632 24.8574 2.01615C24.5831 2.67598 24.4124 3.5863 24.3453 4.75322C24.2844 5.91403 24.2539 7.4353 24.2539 9.31093V17.2839C24.2539 19.1351 24.2844 20.6441 24.3453 21.8233C24.4124 23.0024 24.5831 23.9188 24.8574 24.5787C25.1378 25.2385 25.601 25.7028 26.2593 25.9839C26.9176 26.2588 27.832 26.4298 29.0084 26.4971C30.1848 26.5581 31.6904 26.5887 33.5373 26.5887H38.4625C40.3338 26.5887 41.8455 26.5581 43.0097 26.4971C44.174 26.4298 45.0822 26.2588 45.7405 25.9839C46.3927 25.7028 46.8621 25.2385 47.1425 24.5787C47.4168 23.9188 47.5875 23.0024 47.6545 21.8233C47.7155 20.6441 47.7459 19.1351 47.7459 17.2839V9.31093C47.7459 7.4353 47.7155 5.91403 47.6545 4.75322ZM36.8167 15.5121H34.9881V7.42308H36.8167V15.5121Z" fill="#0A4BC3"/>
<path d="M71.9023 4.75322C71.8414 3.5863 71.6707 2.67598 71.3903 2.01615C71.116 1.35632 70.6467 0.891992 69.9883 0.610954C69.3361 0.329915 68.4157 0.158848 67.2454 0.0977526C66.0689 0.0366572 64.5573 0 62.7164 0H48.5078V26.5887H59.2542V7.42308H61.0828V26.5887H71.9999V9.31093C71.9999 7.4353 71.9694 5.91403 71.9023 4.75322Z" fill="#0A4BC3"/>
<path d="M20.1274 40.5246V27.7923H9.87473C7.91808 27.7923 6.31497 27.8228 5.07148 27.89C3.82191 27.9573 2.85272 28.1405 2.15784 28.4338C1.45686 28.7332 0.96312 29.228 0.664441 29.9245C0.371857 30.6271 0.188992 31.5924 0.121942 32.8266C0.0548915 34.0668 0.0244141 35.6736 0.0244141 37.6653V56H12.0874V51.9738H20.1274V42.3574H11.4778V40.5246H20.1274Z" fill="#0A4BC3"/>
<path d="M45.8627 34.4334V27.7923H30.7824C28.8258 27.7923 27.2227 27.8228 25.9792 27.89C24.7296 27.9573 23.7604 28.1405 23.0656 28.4338C22.3646 28.7332 21.8708 29.228 21.5783 29.9245C21.2796 30.6271 21.0967 31.5924 21.0358 32.8266C20.9687 34.0668 20.9321 35.6736 20.9321 37.6653V56H45.8627V44.3736H34.1228V42.5407H45.8627V36.2662H34.1228V34.4334H45.8627Z" fill="#0A4BC3"/>
<path d="M71.5976 42.5407V37.6653C71.5976 35.6736 71.561 34.0668 71.494 32.8266C71.4269 31.5924 71.2501 30.6271 70.9515 29.9245C70.6589 29.228 70.159 28.7332 69.4641 28.4338C68.7693 28.1405 67.794 27.9573 66.5505 27.89C65.3009 27.8228 63.7039 27.7923 61.7473 27.7923H46.667V56H57.9741V43.8848H59.8028V56H71.5976V44.3736H65.3497V42.5407H71.5976ZM59.8028 38.0685H57.9741V33.2542H59.8028V38.0685Z" fill="#0A4BC3"/>
</g>
<defs>
<clipPath id="clip0_47_392">
<rect width="72" height="56" fill="white"/>
</clipPath>
</defs>
</svg>
